<svg id="beer" xmlns="http://www.w3.org/2000/svg" width="22.334" height="29" viewBox="0 0 22.334 29">
  <path id="Path_194" data-name="Path 194" d="M318.877,211.86h4.7a2.21,2.21,0,0,0,2.351-2.035V199.649a2.21,2.21,0,0,0-2.351-2.035h-4.7v2.035h4.114a.553.553,0,0,1,.588.509v9.158a.553.553,0,0,1-.588.509h-4.114Z" transform="translate(-303.596 -186.421)" fill="#fdb62f"/>
  <g id="Group_25" data-name="Group 25" transform="translate(15.281 11.193)">
    <rect id="Rectangle_12" data-name="Rectangle 12" width="2.351" height="2.035" fill="#fa962a"/>
    <rect id="Rectangle_13" data-name="Rectangle 13" width="2.351" height="2.035" transform="translate(0 12.211)" fill="#fa962a"/>
  </g>
  <rect id="Rectangle_14" data-name="Rectangle 14" width="16.457" height="21.369" transform="translate(0 7.632)" fill="#fdb62f"/>
  <path id="Path_195" data-name="Path 195" d="M99.93,134.737a25.906,25.906,0,0,1-14.6,17.881v3.488h16.457V134.737Z" transform="translate(-85.334 -127.105)" fill="#ffa83d"/>
  <g id="Group_26" data-name="Group 26" transform="translate(0 9.667)">
    <rect id="Rectangle_15" data-name="Rectangle 15" width="16.457" height="1.018" transform="translate(0 16.281)" fill="#fa962a"/>
    <rect id="Rectangle_16" data-name="Rectangle 16" width="16.457" height="1.018" fill="#fa962a"/>
    <path id="Path_196" data-name="Path 196" d="M194.3,215.579h0a1.1,1.1,0,0,1,1.175,1.018v10.176a1.1,1.1,0,0,1-1.175,1.018h0a1.1,1.1,0,0,1-1.175-1.018V216.6A1.1,1.1,0,0,1,194.3,215.579Z" transform="translate(-186.07 -213.035)" fill="#fa962a"/>
    <path id="Path_197" data-name="Path 197" d="M266.157,215.579h0a1.1,1.1,0,0,1,1.175,1.018v10.176a1.1,1.1,0,0,1-1.175,1.018h0a1.1,1.1,0,0,1-1.175-1.018V216.6A1.1,1.1,0,0,1,266.157,215.579Z" transform="translate(-253.227 -213.035)" fill="#fa962a"/>
    <path id="Path_198" data-name="Path 198" d="M122.438,215.579h0a1.1,1.1,0,0,1,1.175,1.018v10.176a1.1,1.1,0,0,1-1.175,1.018h0a1.1,1.1,0,0,1-1.175-1.018V216.6A1.1,1.1,0,0,1,122.438,215.579Z" transform="translate(-118.912 -213.035)" fill="#fa962a"/>
  </g>
  <g id="Group_27" data-name="Group 27" transform="translate(0 0)">
    <path id="Path_199" data-name="Path 199" d="M101.791,6.105a2.763,2.763,0,0,0-2.939-2.544H95.913V3.053A3.315,3.315,0,0,0,92.387,0h0A3.315,3.315,0,0,0,88.86,3.053v.509h-.588a2.763,2.763,0,0,0-2.939,2.544V7.632h16.457V6.105Z" transform="translate(-85.334 0)" fill="#e5e5e5"/>
    <path id="Path_200" data-name="Path 200" d="M139.228,98.807h2.351v5.088a1.1,1.1,0,0,1-1.175,1.018h0a1.1,1.1,0,0,1-1.175-1.018V98.807Z" transform="translate(-135.702 -93.21)" fill="#e5e5e5"/>
  </g>
  <g id="Group_28" data-name="Group 28" transform="translate(5.877 0)">
    <path id="Path_201" data-name="Path 201" d="M177.509,3.052v.509h2.351V3.052A3.3,3.3,0,0,0,176.35,0a4,4,0,0,0-1.192.178A3.115,3.115,0,0,1,177.509,3.052Z" transform="translate(-175.158 0)" fill="#dedede"/>
    <path id="Path_202" data-name="Path 202" d="M258.351,62.877H256a2.763,2.763,0,0,1,2.939,2.544v1.526h2.351V65.421A2.763,2.763,0,0,0,258.351,62.877Z" transform="translate(-250.71 -59.316)" fill="#dedede"/>
  </g>
</svg>
