<svg xmlns="http://www.w3.org/2000/svg" width="195" height="63" viewBox="0 0 195 63"><text transform="translate(77 25)" fill="#fff" font-size="26" font-family="LondrinaSolid-Black, Londrina Solid" font-weight="800" letter-spacing="0.15em"><tspan x="0" y="0">CHURRAS</tspan><tspan x="0" y="31">COLATOR</tspan></text><g transform="translate(0 8.17)"><path d="M236.934-229.6l-2.267,12.223,2.267,11.92,14.812.072h.062a12.3,12.3,0,0,0,8.7-3.564,12.113,12.113,0,0,0,3.635-8.678v-6.745C264.144-225.33,249.793-228.182,236.934-229.6Z" transform="translate(-209.725 247.369)" fill="#efe2dd"/><path d="M0-239v7.237a17.362,17.362,0,0,0,17.4,17.276l9.807.048v-24.143C14.278-240.005,0-239.83,0-239Z" transform="translate(0 256.348)" fill="#efe2dd"/><path d="M261.429-354.233l-8.16-.077a15.787,15.787,0,0,0-6.8-7.911l-1.134,16.086,1.134,13.151,14.82.072a10.7,10.7,0,0,0,10.8-10.66A10.7,10.7,0,0,0,261.429-354.233Z" transform="translate(-219.257 366.004)" fill="#fb3636"/><path d="M33.449-383.006c-.873-.046-1.757-.072-2.633-.072A15.755,15.755,0,0,0,15-367.384,15.755,15.755,0,0,0,30.816-351.69l9.8.048v-29.236A15.941,15.941,0,0,0,33.449-383.006Z" transform="translate(-13.406 384.66)" fill="#fb3636"/><path d="M270.1-367.449a12.308,12.308,0,0,0-8.655-3.622l-7.117-.067a17.427,17.427,0,0,0-7.861-8.138l-1.134,1.009,1.134,2.661a14.2,14.2,0,0,1,5.316,6.611l.391,1,9.241.088h0a9.127,9.127,0,0,1,6.419,2.686,8.987,8.987,0,0,1,2.652,6.392,8.982,8.982,0,0,1-2.7,6.435,9.113,9.113,0,0,1-6.5,2.643l-14.827-.072-1.134,1.931,1.134,1.233,14.812.072h.062a12.3,12.3,0,0,0,8.7-3.564,12.112,12.112,0,0,0,3.635-8.678A12.12,12.12,0,0,0,270.1-367.449Z" transform="translate(-219.257 381.259)" fill="#faede4"/><path d="M17.41-366.69A14.183,14.183,0,0,1,3.189-380.8,14.183,14.183,0,0,1,17.41-394.914c.8,0,1.662.024,2.549.07a14.338,14.338,0,0,1,7.25,2.42v-3.671A17.526,17.526,0,0,0,20.128-398c-.943-.049-1.857-.074-2.717-.074A17.363,17.363,0,0,0,0-380.8a17.362,17.362,0,0,0,17.4,17.276l9.807.048v-3.164Z" transform="translate(0 398.078)" fill="#faede4"/><path d="M124.976-274.06a4.454,4.454,0,0,1,6.262,0,4.372,4.372,0,0,1,0,6.214,4.454,4.454,0,0,1-6.262,0A4.372,4.372,0,0,1,124.976-274.06Z" transform="translate(-110.534 288.291)" fill="#fffaf5" fill-rule="evenodd"/></g></svg>