<svg xmlns="http://www.w3.org/2000/svg" width="111.419" height="85.985" viewBox="0 0 111.419 85.985"><path d="M239.309-229.6l-4.642,25.033,4.642,24.413,30.326.148h.128a25.182,25.182,0,0,0,17.814-7.3,24.81,24.81,0,0,0,7.442-17.772v-13.814C295.019-220.854,265.637-226.7,239.309-229.6Z" transform="translate(-183.6 265.991)" fill="#efe2dd"/><path d="M0-238.324V-223.5a35.552,35.552,0,0,0,35.63,35.382l20.079.1V-237.47C29.233-240.391,0-240.032,0-238.324Z" transform="translate(0 273.861)" fill="#efe2dd"/><path d="M278.289-345.862l-16.707-.158a32.33,32.33,0,0,0-13.927-16.2l-2.321,32.943,2.321,26.933L278-302.2a21.915,21.915,0,0,0,22.1-21.832A21.912,21.912,0,0,0,278.289-345.862Z" transform="translate(-191.945 369.967)" fill="#fb3636"/><path d="M52.774-382.93c-1.787-.094-3.6-.148-5.392-.148A32.262,32.262,0,0,0,15-350.936a32.263,32.263,0,0,0,32.382,32.142l20.063.1v-59.876A32.631,32.631,0,0,0,52.774-382.93Z" transform="translate(-11.736 386.318)" fill="#fb3636"/><path d="M296.04-355.055a25.2,25.2,0,0,0-17.72-7.417l-14.571-.138a35.687,35.687,0,0,0-16.095-16.666l-2.321,2.067,2.321,5.45a29.07,29.07,0,0,1,10.884,13.54l.8,2.047,18.919.179h0a18.684,18.684,0,0,1,13.143,5.5,18.408,18.408,0,0,1,5.431,13.091,18.4,18.4,0,0,1-5.519,13.179,18.656,18.656,0,0,1-13.3,5.413l-30.358-.148L245.333-315l2.321,2.525,30.326.148h.128a25.182,25.182,0,0,0,17.814-7.3,24.81,24.81,0,0,0,7.442-17.772A24.825,24.825,0,0,0,296.04-355.055Z" transform="translate(-191.945 383.337)" fill="#faede4"/><path d="M35.646-333.794A29.043,29.043,0,0,1,6.528-362.7a29.043,29.043,0,0,1,29.118-28.9c1.647,0,3.4.048,5.22.143A29.349,29.349,0,0,1,55.709-386.5v-7.518a35.874,35.874,0,0,0-14.5-3.909c-1.93-.1-3.8-.152-5.564-.152A35.555,35.555,0,0,0,0-362.7a35.552,35.552,0,0,0,35.63,35.382l20.079.1v-6.48Z" transform="translate(0 398.078)" fill="#faede4"/><path d="M126.333-272.713a9.118,9.118,0,0,1,12.821,0,8.956,8.956,0,0,1,0,12.726,9.118,9.118,0,0,1-12.821,0A8.956,8.956,0,0,1,126.333-272.713Z" transform="translate(-96.765 301.857)" fill="#fffaf5" fill-rule="evenodd"/></svg>