<svg xmlns="http://www.w3.org/2000/svg" width="29.582" height="23" viewBox="0 0 29.582 23">
  <g id="meat" transform="translate(0 398.078)">
    <path id="Path_173" data-name="Path 173" d="M235.9-229.6l-1.233,6.7,1.233,6.53,8.052.039h.034a6.661,6.661,0,0,0,4.73-1.953,6.661,6.661,0,0,0,1.976-4.754v-3.7C250.691-227.261,242.89-228.823,235.9-229.6Z" transform="translate(-221.109 -158.744)" fill="#efe2dd"/>
    <path id="Path_174" data-name="Path 174" d="M0-239.286v3.965a9.474,9.474,0,0,0,9.46,9.464l5.331.026v-13.226C7.762-239.839,0-239.743,0-239.286Z" transform="translate(0 -149.286)" fill="#efe2dd"/>
    <path id="Path_175" data-name="Path 175" d="M254.083-357.846l-4.436-.042a8.63,8.63,0,0,0-3.7-4.334l-.616,8.812.616,7.2,8.056.039a5.84,5.84,0,0,0,5.868-5.84A5.84,5.84,0,0,0,254.083-357.846Z" transform="translate(-231.158 -33.784)" fill="#fb3636"/>
    <path id="Path_176" data-name="Path 176" d="M25.029-383.038c-.475-.025-.955-.04-1.432-.04a8.6,8.6,0,0,0-8.6,8.6,8.6,8.6,0,0,0,8.6,8.6l5.327.026v-16.016A8.616,8.616,0,0,0,25.029-383.038Z" transform="translate(-14.133 -14.133)" fill="#fb3636"/>
    <path id="Path_177" data-name="Path 177" d="M258.8-372.8a6.665,6.665,0,0,0-4.7-1.984l-3.869-.037a9.515,9.515,0,0,0-4.273-4.458l-.616.553.616,1.458a7.766,7.766,0,0,1,2.89,3.622l.212.548,5.023.048h0a4.942,4.942,0,0,1,3.49,1.471,4.943,4.943,0,0,1,1.442,3.5,4.94,4.94,0,0,1-1.465,3.525,4.935,4.935,0,0,1-3.532,1.448l-8.06-.039-.616,1.058.616.675,8.052.039h.034a6.661,6.661,0,0,0,4.73-1.953,6.661,6.661,0,0,0,1.976-4.754A6.665,6.665,0,0,0,258.8-372.8Z" transform="translate(-231.158 -17.716)" fill="#faede4"/>
    <path id="Path_178" data-name="Path 178" d="M9.464-380.883a7.74,7.74,0,0,1-7.731-7.731,7.74,7.74,0,0,1,7.731-7.731c.437,0,.9.013,1.386.038a7.755,7.755,0,0,1,3.941,1.326v-2.011a9.47,9.47,0,0,0-3.85-1.046c-.513-.027-1.01-.041-1.477-.041A9.475,9.475,0,0,0,0-388.614a9.474,9.474,0,0,0,9.46,9.464l5.331.026v-1.733Z" fill="#faede4"/>
    <path id="Path_179" data-name="Path 179" d="M124.384-274.642a2.408,2.408,0,0,1,3.4,0,2.408,2.408,0,0,1,0,3.4,2.408,2.408,0,0,1-3.4,0A2.408,2.408,0,0,1,124.384-274.642Z" transform="translate(-116.534 -115.64)" fill="#fffaf5" fill-rule="evenodd"/>
  </g>
</svg>
