<svg xmlns="http://www.w3.org/2000/svg" width="200" height="200" viewBox="-1020 80 2250 2250"><g transform="translate(-734.263 114.749)"><g transform="translate(1429.157 1126.558) rotate(-60)"><path d="M263.45-229.6,234.667-73.231,263.45,79.261l188.023.922h.791a155.54,155.54,0,0,0,110.447-45.6A155.553,155.553,0,0,0,608.853-76.429V-162.72C608.853-174.97,426.686-211.454,263.45-229.6Z" transform="translate(81.953 58.838)" fill="#efe2dd"/><path d="M0-231.435v92.58C0-16.989,99.144,82.156,220.911,82.156l124.492.61V-226.095C181.25-244.343,0-242.1,0-231.435Z" transform="translate(0 55.332)" fill="#efe2dd"/><path d="M449.663-260.027l-103.587-.989a201.525,201.525,0,0,0-86.351-101.206L245.333-156.443,259.725,11.792l188.123.922A136.373,136.373,0,0,0,584.89-123.659,136.372,136.372,0,0,0,449.663-260.027Z" transform="translate(85.678 12.522)" fill="#fb3636"/><path d="M249.2-382.155c-11.083-.584-22.3-.923-33.429-.923C104.888-383.078,15-293.19,15-182.307S104.888,18.465,215.772,18.465l124.392.61V-354.938A201.214,201.214,0,0,0,249.2-382.155Z" transform="translate(5.238 5.238)" fill="#fb3636"/><path d="M559.723-227.979A155.65,155.65,0,0,0,449.856-274.31l-90.342-.862a222.176,222.176,0,0,0-99.789-104.1l-14.392,12.914,14.392,34.045a181.338,181.338,0,0,1,67.482,84.577l4.961,12.788,117.3,1.12h.023a115.421,115.421,0,0,1,81.488,34.357,115.422,115.422,0,0,1,33.67,81.773,115.349,115.349,0,0,1-34.216,82.322A115.227,115.227,0,0,1,447.948-1.57L259.725-2.491,245.333,22.215l14.392,15.771,188.023.922h.791A155.537,155.537,0,0,0,558.985-6.69,155.549,155.549,0,0,0,605.128-117.7,155.655,155.655,0,0,0,559.723-227.979Z" transform="translate(85.678 6.566)" fill="#faede4"/><path d="M221.011,3.465c-99.548,0-180.534-80.988-180.534-180.534S121.463-357.6,221.011-357.6c10.212,0,21.1.3,32.363.895a181.076,181.076,0,0,1,92.03,30.955V-372.71a221.147,221.147,0,0,0-89.9-24.417c-11.969-.631-23.575-.951-34.494-.951C99.144-398.078,0-298.934,0-177.069S99.144,43.942,220.911,43.942l124.492.61V4.075Z" transform="translate(0 0)" fill="#faede4"/><path d="M140.133-258.895a56.238,56.238,0,0,1,79.493,0,56.235,56.235,0,0,1,0,79.493,56.235,56.235,0,0,1-79.493,0A56.235,56.235,0,0,1,140.133-258.895Z" transform="translate(43.193 42.862)" fill="#fffaf5" fill-rule="evenodd"/></g><g transform="translate(1200.063 -45.7) rotate(120)"><path d="M263.45-229.6,234.667-73.231,263.45,79.261l188.023.922h.791a155.54,155.54,0,0,0,110.447-45.6A155.553,155.553,0,0,0,608.853-76.429V-162.72C608.853-174.97,426.686-211.454,263.45-229.6Z" transform="translate(81.953 58.838)" fill="#efe2dd"/><path d="M0-231.435v92.58C0-16.989,99.144,82.156,220.911,82.156l124.492.61V-226.095C181.25-244.343,0-242.1,0-231.435Z" transform="translate(0 55.332)" fill="#efe2dd"/><path d="M449.663-260.027l-103.587-.989a201.525,201.525,0,0,0-86.351-101.206L245.333-156.443,259.725,11.792l188.123.922A136.373,136.373,0,0,0,584.89-123.659,136.372,136.372,0,0,0,449.663-260.027Z" transform="translate(85.678 12.522)" fill="#fb3636"/><path d="M249.2-382.155c-11.083-.584-22.3-.923-33.429-.923C104.888-383.078,15-293.19,15-182.307S104.888,18.465,215.772,18.465l124.392.61V-354.938A201.214,201.214,0,0,0,249.2-382.155Z" transform="translate(5.238 5.238)" fill="#fb3636"/><path d="M559.723-227.979A155.65,155.65,0,0,0,449.856-274.31l-90.342-.862a222.176,222.176,0,0,0-99.789-104.1l-14.392,12.914,14.392,34.045a181.338,181.338,0,0,1,67.482,84.577l4.961,12.788,117.3,1.12h.023a115.421,115.421,0,0,1,81.488,34.357,115.422,115.422,0,0,1,33.67,81.773,115.349,115.349,0,0,1-34.216,82.322A115.227,115.227,0,0,1,447.948-1.57L259.725-2.491,245.333,22.215l14.392,15.771,188.023.922h.791A155.537,155.537,0,0,0,558.985-6.69,155.549,155.549,0,0,0,605.128-117.7,155.655,155.655,0,0,0,559.723-227.979Z" transform="translate(85.678 6.566)" fill="#faede4"/><path d="M221.011,3.465c-99.548,0-180.534-80.988-180.534-180.534S121.463-357.6,221.011-357.6c10.212,0,21.1.3,32.363.895a181.076,181.076,0,0,1,92.03,30.955V-372.71a221.147,221.147,0,0,0-89.9-24.417c-11.969-.631-23.575-.951-34.494-.951C99.144-398.078,0-298.934,0-177.069S99.144,43.942,220.911,43.942l124.492.61V4.075Z" transform="translate(0 0)" fill="#faede4"/><path d="M140.133-258.895a56.238,56.238,0,0,1,79.493,0,56.235,56.235,0,0,1,0,79.493,56.235,56.235,0,0,1-79.493,0A56.235,56.235,0,0,1,140.133-258.895Z" transform="translate(43.193 42.862)" fill="#fffaf5" fill-rule="evenodd"/></g></g></svg>