<svg id="money" xmlns="http://www.w3.org/2000/svg" width="35" height="19.296" viewBox="0 0 35 19.296">
  <path id="Path_180" data-name="Path 180" d="M33.881,130.148H1.119A1.1,1.1,0,0,1,0,129.06V111.94a1.1,1.1,0,0,1,1.119-1.088H33.881A1.1,1.1,0,0,1,35,111.94v17.12A1.1,1.1,0,0,1,33.881,130.148Z" transform="translate(0 -110.852)" fill="#5ea570"/>
  <path id="Path_181" data-name="Path 181" d="M475.452,110.852h-1.48a1.1,1.1,0,0,1,1.119,1.088v17.12a1.1,1.1,0,0,1-1.119,1.088h1.48a1.1,1.1,0,0,0,1.119-1.088V111.94A1.1,1.1,0,0,0,475.452,110.852Z" transform="translate(-441.572 -110.852)" fill="#528e61"/>
  <g id="Group_20" data-name="Group 20" transform="translate(3.734 3.583)">
    <path id="Path_182" data-name="Path 182" d="M81.992,174.92a.18.18,0,0,0,.168-.177v-7.852a.18.18,0,0,0-.168-.177,2,2,0,0,1-1.85-1.8.177.177,0,0,0-.178-.16H56.829a.181.181,0,0,0-.182.163,2,2,0,0,1-1.85,1.8.18.18,0,0,0-.168.177v7.852a.18.18,0,0,0,.168.177,2,2,0,0,1,1.85,1.8.181.181,0,0,0,.182.163H79.96a.181.181,0,0,0,.182-.163A2,2,0,0,1,81.992,174.92Z" transform="translate(-54.629 -164.751)" fill="#8bc852"/>
    <path id="Path_183" data-name="Path 183" d="M402.913,166.714a2,2,0,0,1-1.85-1.8.177.177,0,0,0-.178-.16H399.1a.177.177,0,0,1,.178.16,2,2,0,0,0,1.85,1.8.18.18,0,0,1,.168.177v7.852a.18.18,0,0,1-.168.177,2,2,0,0,0-1.85,1.8.181.181,0,0,1-.182.163h1.783a.181.181,0,0,0,.182-.163,2,2,0,0,1,1.85-1.8.18.18,0,0,0,.168-.177v-7.852A.18.18,0,0,0,402.913,166.714Z" transform="translate(-375.549 -164.752)" fill="#7dbe3b"/>
  </g>
  <ellipse id="Ellipse_2" data-name="Ellipse 2" cx="7.927" cy="7.708" rx="7.927" ry="7.708" transform="translate(9.573 1.94)" fill="#cbe7af"/>
  <path id="Path_184" data-name="Path 184" d="M244.231,140.034a8.233,8.233,0,0,0-.864.046,7.688,7.688,0,0,1,0,15.325,8.234,8.234,0,0,0,.864.046,7.711,7.711,0,1,0,0-15.417Z" transform="translate(-226.731 -138.094)" fill="#aad880"/>
  <path id="Path_185" data-name="Path 185" d="M219.84,176.909c-.177-.061-.359-.125-.54-.192v-2.736a1.833,1.833,0,0,1,.785.353.539.539,0,0,0,.743-.032.5.5,0,0,0-.03-.726,2.963,2.963,0,0,0-1.5-.636v-.581a.528.528,0,0,0-1.056,0v.62c-.1.019-.194.043-.294.073a2.255,2.255,0,0,0-1.573,1.753,1.93,1.93,0,0,0,.658,1.933,5.611,5.611,0,0,0,1.209.669v3.436a2.437,2.437,0,0,1-1.331-.47.537.537,0,0,0-.731.149.505.505,0,0,0,.153.711,3.488,3.488,0,0,0,1.909.638v.65a.528.528,0,0,0,1.056,0v-.689a2.728,2.728,0,0,0,2.214-2.218A2.358,2.358,0,0,0,219.84,176.909Zm-2.154-.98a.931.931,0,0,1-.272-.934,1.229,1.229,0,0,1,.829-.956v2.23A3.694,3.694,0,0,1,217.687,175.929Zm2.785,3.514a1.7,1.7,0,0,1-1.172,1.33v-2.961l.188.066A1.343,1.343,0,0,1,220.472,179.442Z" transform="translate(-201.323 -167.791)" fill="#5ea570"/>
</svg>
