<svg id="soda" xmlns="http://www.w3.org/2000/svg" width="14.084" height="34" viewBox="0 -2 14.084 38">
  <path id="Path_186" data-name="Path 186" d="M54.617,2.9V.691A.757.757,0,0,1,55.427,0h4.047a.757.757,0,0,1,.809.691V2.9Zm0,0" transform="translate(-50.408 0)" fill="#da2f3c"/>
  <path id="Path_187" data-name="Path 187" d="M4.708,43.707c-.057,3.533.459,4.354-2.509,8.984A8.841,8.841,0,0,0,.5,57.8a18.679,18.679,0,0,0,.567,3.939C2.071,66.861,2.491,69.3.753,72.066a1.635,1.635,0,0,0-.254.872A2.046,2.046,0,0,0,2.686,74.8H12.4a2.046,2.046,0,0,0,2.186-1.867,1.637,1.637,0,0,0-.254-.872c-1.738-2.769-1.318-5.2-.313-10.322a18.659,18.659,0,0,0,.567-3.939,8.841,8.841,0,0,0-1.7-5.114c-2.968-4.63-2.452-5.451-2.509-8.984Zm0,0" transform="translate(-0.499 -40.805)" fill="#a77554"/>
  <path id="Path_188" data-name="Path 188" d="M59.474,0h-.729V1.244a.757.757,0,0,1-.809.691H54.618V2.9h5.666V.691A.757.757,0,0,0,59.474,0Zm0,0" transform="translate(-50.408 0)" fill="#c62430"/>
  <path id="Path_189" data-name="Path 189" d="M112.842,61.744a18.66,18.66,0,0,0,.567-3.939,8.841,8.841,0,0,0-1.7-5.114c-2.968-4.63-2.452-5.451-2.509-8.984h-1.538c.057,3.533-.459,4.354,2.509,8.984a8.841,8.841,0,0,1,1.7,5.114,18.658,18.658,0,0,1-.567,3.939c-1.005,5.117-1.425,7.554.313,10.322a1.635,1.635,0,0,1,.254.872,2.046,2.046,0,0,1-2.186,1.867h1.538a2.046,2.046,0,0,0,2.186-1.867,1.637,1.637,0,0,0-.254-.872c-1.738-2.769-1.318-5.2-.313-10.322Zm0,0" transform="translate(-99.325 -40.804)" fill="#915431"/>
  <path id="Path_190" data-name="Path 190" d="M.5,203.536a18.183,18.183,0,0,0,.553,3.87H14.03a18.164,18.164,0,0,0,.553-3.87,7.988,7.988,0,0,0-.9-3.732H1.4a7.988,7.988,0,0,0-.9,3.732Zm0,0" transform="translate(-0.499 -186.536)" fill="#da2f3c"/>
  <path id="Path_191" data-name="Path 191" d="M151.714,199.8h-1.538a7.984,7.984,0,0,1,.9,3.732,18.168,18.168,0,0,1-.553,3.87h1.538a18.167,18.167,0,0,0,.553-3.87A7.984,7.984,0,0,0,151.714,199.8Zm0,0" transform="translate(-138.534 -186.537)" fill="#c62430"/>
  <path id="Path_192" data-name="Path 192" d="M9.609,202.126A22.327,22.327,0,0,0,4.366,199.8H1.534a7.925,7.925,0,0,0-.894,3.364,13.133,13.133,0,0,1,5.1,1.916,21.962,21.962,0,0,0,5.283,2.322H14.16a21.652,21.652,0,0,0,.544-3.367,13.361,13.361,0,0,1-5.1-1.913Zm0,0" transform="translate(-0.629 -186.536)" fill="#ddf5ff"/>
  <path id="Path_193" data-name="Path 193" d="M156.29,262.232a19.688,19.688,0,0,0,.486-3.088,10.487,10.487,0,0,1-1.53-.315,19.305,19.305,0,0,1-.552,3.682h1.538q.028-.139.057-.278C156.3,262.177,156.286,262.253,156.29,262.232Zm0,0" transform="translate(-142.702 -241.64)" fill="#c1e9f4"/>
</svg>
